<?xml version="1.0" encoding="UTF-8" standalone="no"?>
<svg
   xmlns:dc="http://purl.org/dc/elements/1.1/"
   xmlns:cc="http://creativecommons.org/ns#"
   xmlns:rdf="http://www.w3.org/1999/02/22-rdf-syntax-ns#"
   xmlns:svg="http://www.w3.org/2000/svg"
   xmlns="http://www.w3.org/2000/svg"
   xmlns:xlink="http://www.w3.org/1999/xlink"
   xmlns:sodipodi="http://sodipodi.sourceforge.net/DTD/sodipodi-0.dtd"
   xmlns:inkscape="http://www.inkscape.org/namespaces/inkscape"
   width="720pt"
   version="1.1"
   height="720pt"
   viewBox="0 0 720 720"
   id="svg2"
   inkscape:version="0.91 r13725"
   sodipodi:docname="omosLogo-page003.svg"
   inkscape:export-filename="C:\Users\ed\Google Drive\TheBoysFromBeagleHill\omosLogo2019-09-09-2312.png"
   inkscape:export-xdpi="600"
   inkscape:export-ydpi="600"
   enable-background="new">
  <metadata
     id="metadata66">
    <rdf:RDF>
      <cc:Work
         rdf:about="">
        <dc:format>image/svg+xml</dc:format>
        <dc:type
           rdf:resource="http://purl.org/dc/dcmitype/StillImage" />
        <dc:title></dc:title>
      </cc:Work>
    </rdf:RDF>
  </metadata>
  <sodipodi:namedview
     pagecolor="#ffffff"
     bordercolor="#666666"
     borderopacity="1"
     objecttolerance="10"
     gridtolerance="10"
     guidetolerance="10"
     inkscape:pageopacity="0"
     inkscape:pageshadow="2"
     inkscape:window-width="1920"
     inkscape:window-height="1017"
     id="namedview64"
     showgrid="false"
     inkscape:zoom="0.37083822"
     inkscape:cx="378.89607"
     inkscape:cy="97.108265"
     inkscape:window-x="1912"
     inkscape:window-y="-8"
     inkscape:window-maximized="1"
     inkscape:current-layer="layer1"
     showguides="false"
     inkscape:guide-bbox="true">
    <sodipodi:guide
       position="359.18628,311.72623"
       orientation="1,0"
       id="guide5722" />
    <sodipodi:guide
       position="789.56262,584.62151"
       orientation="0,1"
       id="guide5724" />
    <sodipodi:guide
       position="954.91526,828.30509"
       orientation="1,0"
       id="guide7944" />
    <sodipodi:guide
       position="901.14407,842.41526"
       orientation="1,0"
       id="guide7946" />
    <sodipodi:guide
       position="1008.6864,814.57627"
       orientation="1,0"
       id="guide7948" />
    <sodipodi:guide
       position="946.90678,698.64407"
       orientation="0,1"
       id="guide7952" />
  </sodipodi:namedview>
  <defs
     id="defs4">
    <path
       id="GlPoorRichard-Regular211"
       d="M3.80859 2.80766 C3.80859 2.80766 5.51766 2.80766 6.49422 3.97953 C6.49422 3.97953 7.47078 5.15141 7.47078 6.61125 C7.47078 6.61125 7.47078 7.69047 6.94094 8.58406 C6.94094 8.58406 6.41109 9.4775 5.55906 9.84375 C5.55906 9.84375 4.70703 10.21 3.75 10.21 C3.75 10.21 2.19234 10.21 1.15719 9.12609 C1.15719 9.12609 0.122031 8.04203 0.122031 6.37203 C0.122031 6.37203 0.122031 5.49797 0.580937 4.64359 C0.580937 4.64359 1.04 3.78906 1.87734 3.29844 C1.87734 3.29844 2.71484 2.80766 3.80859 2.80766 L3.80859 2.80766 Z M3.77937 9.74125 C3.77937 9.74125 4.69734 9.74125 5.31 9.33594 C5.31 9.33594 5.92281 8.93062 6.18641 8.33734 C6.18641 8.33734 6.45016 7.74406 6.45016 6.75781 C6.45016 6.75781 6.45016 5.05375 5.73719 4.15281 C5.73719 4.15281 5.02438 3.25188 3.80859 3.25188 C3.80859 3.25188 2.55375 3.25188 1.84563 4.17719 C1.84563 4.17719 1.13766 5.1025 1.13766 6.37203 C1.13766 6.37203 1.13766 9.74125 3.77937 9.74125 L3.77937 9.74125 Z M4.46781 0.909688 C4.46781 0.909688 4.70719 0.909688 4.84875 0.987813 C4.84875 0.987813 4.99031 1.06594 4.99031 1.19781 C4.99031 1.19781 4.99031 1.51031 4.61922 1.51031 C4.61922 1.51031 4.51672 1.51031 4.38 1.60062 C4.38 1.60062 4.24328 1.69094 3.91609 2.04984 C3.91609 2.04984 3.58891 2.40875 3.46203 2.40875 C3.46203 2.40875 3.34969 2.40875 3.34969 2.31109 C3.34969 2.31109 3.34969 2.09625 3.74766 1.50297 C3.74766 1.50297 4.14562 0.909688 4.46781 0.909688 Z" />
    <path
       id="GlPoorRichard-Regular77"
       d="M6.76766 9.03813 C6.76766 9.03813 6.76766 9.23828 6.86031 9.39219 C6.86031 9.39219 6.95312 9.54594 7.23391 9.60203 C7.23391 9.60203 7.51469 9.65813 7.56828 9.71672 C7.56828 9.71672 7.62203 9.77531 7.62203 9.85844 C7.62203 9.85844 7.62203 9.94625 7.54641 10.0073 C7.54641 10.0073 7.47078 10.0684 7.32906 10.0684 C7.32906 10.0684 7.22172 10.0684 6.91406 10.0195 C6.91406 10.0195 6.60641 9.97063 6.40141 9.97063 C6.40141 9.97063 6.26469 9.97063 5.91312 10.0195 C5.91312 10.0195 5.56156 10.0684 5.41016 10.0684 C5.41016 10.0684 5.09766 10.0684 5.09766 9.83891 C5.09766 9.83891 5.09766 9.72656 5.16594 9.69 C5.16594 9.69 5.23438 9.65328 5.38094 9.63859 C5.38094 9.63859 5.73734 9.59953 5.82766 9.50437 C5.82766 9.50437 5.91797 9.40922 5.91797 9.05766 L5.91797 4.86813 C5.91797 4.86813 5.91797 4.59953 5.89359 4.59953 C5.89359 4.59953 5.85938 4.59953 5.7325 4.85844 L4.97562 6.33781 C4.97562 6.33781 4.50203 7.26562 4.11375 7.98594 C4.11375 7.98594 3.72562 8.70609 3.69875 8.75984 C3.69875 8.75984 3.67188 8.81344 3.63766 8.84766 C3.63766 8.84766 3.60359 8.88188 3.53031 8.88188 C3.53031 8.88188 3.40828 8.88188 3.31062 8.69141 L1.48922 5.07812 C1.48922 5.07812 1.36234 4.82422 1.33297 4.82422 C1.33297 4.82422 1.30859 4.82422 1.30859 5.07812 L1.30859 9.21875 C1.30859 9.21875 1.30859 9.39937 1.46484 9.51906 C1.46484 9.51906 1.62109 9.63859 1.76766 9.63859 C1.76766 9.63859 2.17781 9.63859 2.17781 9.86812 C2.17781 9.86812 2.17781 10.0781 1.82125 10.0781 C1.82125 10.0781 1.76266 10.0781 1.49172 10.0244 C1.49172 10.0244 1.22078 9.97063 1.10844 9.97063 C1.10844 9.97063 0.961875 9.97063 0.705469 10.0292 C0.705469 10.0292 0.449219 10.088 0.341875 10.088 C0.341875 10.088 0.185625 10.088 0.0878125 10.0073 C0.0878125 10.0073 -0.00984375 9.92672 -0.00984375 9.83891 C-0.00984375 9.83891 -0.00984375 9.75094 0.104844 9.685 C0.104844 9.685 0.219688 9.61906 0.371094 9.61906 C0.371094 9.61906 0.849688 9.61906 0.849688 9.05766 L0.849688 3.95016 C0.849688 3.95016 0.849688 3.75 0.722656 3.60594 C0.722656 3.60594 0.595781 3.46188 0.361406 3.43016 C0.361406 3.43016 0.127031 3.39844 0.05375 3.33016 C0.05375 3.33016 -0.0195312 3.26172 -0.0195312 3.15922 C-0.0195312 3.15922 -0.0195312 3.08594 0.075625 3.02734 C0.075625 3.02734 0.170937 2.96875 0.268594 2.96875 C0.268594 2.96875 0.371094 2.96875 0.5225 3.01031 C0.5225 3.01031 0.673906 3.05172 0.766563 3.05172 C0.766563 3.05172 0.859375 3.05172 1.00094 3.01031 C1.00094 3.01031 1.14266 2.96875 1.23047 2.96875 C1.23047 2.96875 1.34766 2.96875 1.41844 3.06156 C1.41844 3.06156 1.48922 3.15422 1.61625 3.43266 L2.72469 5.66891 L3.65234 7.52922 C3.65234 7.52922 3.71094 7.64641 3.74031 7.64641 C3.74031 7.64641 3.77438 7.64641 3.82812 7.53906 C3.82812 7.53906 5.33688 4.70703 5.94234 3.51562 C5.94234 3.51562 6.12312 3.16406 6.2525 3.07125 C6.2525 3.07125 6.38187 2.97844 6.52828 2.97844 C6.52828 2.97844 6.59672 2.97844 6.75781 2.99797 C6.75781 2.99797 6.91891 3.0175 7.00203 3.0175 C7.00203 3.0175 7.08016 3.0175 7.19969 2.99313 C7.19969 2.99313 7.31937 2.96875 7.34859 2.96875 C7.34859 2.96875 7.61234 2.96875 7.61234 3.17875 C7.61234 3.17875 7.61234 3.34953 7.35844 3.34953 C7.35844 3.34953 7.14844 3.34953 6.99219 3.49859 C6.99219 3.49859 6.83594 3.6475 6.80172 3.71344 C6.80172 3.71344 6.76766 3.77922 6.76766 4.02828 L6.76766 9.03813 Z" />
    <path
       id="GlPoorRichard-Regular83"
       d="M1.14266 4.24797 C1.14266 4.24797 1.14266 4.49219 1.31109 4.74375 C1.31109 4.74375 1.47953 4.99516 2.17281 5.48828 C2.17281 5.48828 3.50594 6.43063 3.94531 7.00922 C3.94531 7.00922 4.38484 7.58781 4.38484 8.24219 C4.38484 8.24219 4.38484 9.16984 3.66703 9.685 C3.66703 9.685 2.94922 10.2002 2.09469 10.2002 C2.09469 10.2002 1.48922 10.2002 0.852031 9.94875 C0.852031 9.94875 0.214844 9.69719 0.214844 9.41891 C0.214844 9.41891 0.214844 9.35063 0.229531 9.16266 C0.229531 9.16266 0.244219 8.97453 0.244219 8.69141 C0.244219 8.69141 0.244219 8.59375 0.227031 8.45469 C0.227031 8.45469 0.21 8.31547 0.21 8.27141 C0.21 8.27141 0.21 8.09078 0.424844 8.09078 C0.424844 8.09078 0.664062 8.09078 0.693438 8.45219 C0.693438 8.45219 0.752031 9.04781 1.11328 9.37984 C1.11328 9.37984 1.47469 9.71187 2.11422 9.71187 C2.11422 9.71187 2.75875 9.71187 3.18109 9.34812 C3.18109 9.34812 3.60359 8.98438 3.60359 8.39844 C3.60359 8.39844 3.60359 8.04688 3.31781 7.65141 C3.31781 7.65141 3.03219 7.25578 1.82125 6.39641 C1.82125 6.39641 1.32328 6.04484 1.03766 5.79828 C1.03766 5.79828 0.752031 5.55172 0.559063 5.21484 C0.559063 5.21484 0.36625 4.87797 0.36625 4.44828 C0.36625 4.44828 0.36625 3.75 0.998594 3.29109 C0.998594 3.29109 1.63094 2.83203 2.45609 2.83203 C2.45609 2.83203 2.92484 2.83203 3.45953 3.06406 C3.45953 3.06406 3.99422 3.29594 3.99422 3.60844 C3.99422 3.60844 3.99422 3.65234 3.98922 3.74766 C3.98922 3.74766 3.98438 3.84281 3.98438 4.02828 C3.98438 4.02828 3.98438 4.07719 4.00391 4.21875 C4.00391 4.21875 4.00391 4.54094 3.78422 4.54094 C3.78422 4.54094 3.70609 4.54094 3.63031 4.46531 C3.63031 4.46531 3.55469 4.38969 3.55469 4.30172 C3.55469 4.30172 3.55469 3.82328 3.23 3.56687 C3.23 3.56687 2.90531 3.31047 2.43656 3.31047 C2.43656 3.31047 1.90437 3.31047 1.52344 3.60344 C1.52344 3.60344 1.14266 3.89641 1.14266 4.24797 Z" />
    <path
       id="GlHighTowerText-Reg109"
       d="M8.36922 9.86812 C8.36922 9.86812 8.36922 10.0294 8.21781 10.0195 C8.21781 10.0195 7.22172 9.94625 6.36234 10.0195 C6.36234 10.0195 6.17188 10.0342 6.17188 9.84859 C6.17188 9.84859 6.17188 9.70219 6.43063 9.69234 C6.43063 9.69234 6.75781 9.67281 6.75781 9.16016 L6.75781 7.86125 C6.75781 7.86125 6.75781 6.7675 5.86922 6.7675 C5.86922 6.7675 5.40047 6.7675 5.00984 6.93844 C5.00984 6.93844 4.65328 7.08984 4.64844 7.24125 L4.62891 9.17969 C4.62891 9.17969 4.62891 9.48234 4.70219 9.58 C4.70219 9.58 4.75594 9.64844 4.94141 9.67766 C4.94141 9.67766 5.37109 9.75094 5.37109 9.85844 C5.37109 9.85844 5.37109 9.95109 5.34672 9.98531 C5.34672 9.98531 5.31734 10.0342 5.17094 10.0294 C5.17094 10.0294 4.61422 10.0098 3.54984 10.0489 C3.54984 10.0489 3.39844 10.0538 3.35453 10.0244 C3.35453 10.0244 3.31062 9.99516 3.31062 9.88766 C3.31062 9.88766 3.31062 9.76078 3.58891 9.73141 C3.58891 9.73141 3.89156 9.69719 3.89156 9.17969 L3.89156 7.85156 C3.89156 7.85156 3.89156 7.31438 3.6475 7.02141 C3.6475 7.02141 3.43266 6.75781 3.10062 6.75781 C3.10062 6.75781 2.61234 6.75781 2.22172 6.95562 C2.22172 6.95562 1.83109 7.15328 1.83109 7.37797 L1.83109 9.16016 C1.83109 9.16016 1.83109 9.46281 1.98734 9.58 C1.98734 9.58 2.12891 9.6875 2.5 9.71187 C2.5 9.71187 2.70016 9.72172 2.70016 9.84859 C2.70016 9.84859 2.70016 9.99016 2.53906 9.99016 C2.53906 9.99016 1.31844 9.99016 0.771563 10.0586 C0.771563 10.0586 0.585938 10.083 0.532188 10.0586 C0.532188 10.0586 0.488281 10.0342 0.488281 9.94141 C0.488281 9.94141 0.488281 9.81938 0.849688 9.73141 C0.849688 9.73141 1.06937 9.67281 1.06937 9.16016 L1.06937 7.66109 C1.06937 7.66109 1.06937 7.08984 0.761719 7.00188 C0.761719 7.00188 0.502969 6.92875 0.446719 6.89453 C0.446719 6.89453 0.390625 6.86031 0.390625 6.78219 C0.390625 6.78219 0.390625 6.69437 0.898438 6.41109 C0.898438 6.41109 1.43562 6.10844 1.55766 6.10844 C1.55766 6.10844 1.66016 6.10844 1.73094 6.40391 C1.73094 6.40391 1.80172 6.69922 1.84078 6.69922 C1.84078 6.69922 1.89453 6.69922 2.13875 6.54781 C2.13875 6.54781 2.44141 6.35734 2.68562 6.26469 C2.68562 6.26469 3.08594 6.10844 3.51078 6.10844 C3.51078 6.10844 3.8525 6.10844 4.10641 6.25484 C4.10641 6.25484 4.28219 6.3525 4.42391 6.52344 L4.54109 6.66984 C4.54109 6.66984 4.54109 6.66984 4.795 6.52344 C4.795 6.52344 5.09281 6.3525 5.37594 6.25484 C5.37594 6.25484 5.79109 6.10844 6.18172 6.10844 C6.18172 6.10844 7.51953 6.10844 7.51953 7.57812 L7.51953 9.16016 C7.51953 9.16016 7.51953 9.43844 7.65141 9.55562 C7.65141 9.55562 7.76859 9.65328 8.11031 9.72172 C8.11031 9.72172 8.36922 9.77047 8.36922 9.86812 Z" />
    <path
       id="GlHighTowerText-Reg117"
       d="M4.98047 9.58984 C4.98047 9.58984 4.98047 9.6875 4.52156 9.88766 L4.13094 10.0586 C4.13094 10.0586 4.06734 10.0586 3.85984 9.83891 C3.85984 9.83891 3.65234 9.61906 3.56937 9.61906 C3.56937 9.61906 3.52547 9.61906 3.06641 9.82422 C3.06641 9.82422 2.6075 10.0294 2.26078 10.0294 C2.26078 10.0294 1.52828 10.0294 1.24031 9.75094 C1.24031 9.75094 0.927813 9.45312 0.927813 8.67188 L0.927813 7.69047 C0.927813 7.69047 0.927813 7.28031 0.844688 7.11422 C0.844688 7.11422 0.7325 6.90922 0.390625 6.80172 C0.390625 6.80172 0.278281 6.7675 0.278281 6.67969 C0.278281 6.67969 0.278281 6.58203 0.46875 6.50875 C0.46875 6.50875 0.830156 6.36719 1.18656 6.22063 C1.18656 6.22063 1.43562 6.11813 1.54781 6.11813 C1.54781 6.11813 1.71875 6.11813 1.71875 6.34766 C1.71875 6.34766 1.71875 6.34766 1.70406 6.86281 C1.70406 6.86281 1.68953 7.37797 1.68953 7.84172 L1.68953 8.42766 C1.68953 8.42766 1.68953 9.02344 1.92391 9.24312 C1.92391 9.24312 2.13375 9.43844 2.69047 9.43844 C2.69047 9.43844 3.54984 9.43844 3.54984 8.55953 L3.54984 7.69047 C3.54984 7.69047 3.54984 7.21672 3.46437 7.0825 C3.46437 7.0825 3.37891 6.94828 3.00781 6.85062 C3.00781 6.85062 2.90047 6.80656 2.90047 6.69922 C2.90047 6.69922 2.90047 6.58688 3.03219 6.53812 C3.03219 6.53812 4.04297 6.17188 4.14062 6.17188 C4.14062 6.17188 4.33109 6.17188 4.33109 6.39156 C4.33109 6.39156 4.33109 6.38672 4.31641 6.88234 C4.31641 6.88234 4.30172 7.37797 4.30172 7.84172 L4.30172 9.07219 C4.30172 9.07219 4.30172 9.41891 4.80953 9.45797 C4.80953 9.45797 4.98047 9.47266 4.98047 9.58984 Z" />
    <path
       id="GlHighTowerText-Reg115"
       d="M3.45219 8.95016 C3.45219 8.95016 3.45219 9.46781 3.05422 9.77297 C3.05422 9.77297 2.65625 10.0781 1.96781 10.0781 C1.96781 10.0781 1.50875 10.0781 1.04984 9.98047 C1.04984 9.98047 0.654375 9.8925 0.590781 9.81938 C0.590781 9.81938 0.551719 9.75094 0.551719 9.15031 C0.551719 9.15031 0.551719 8.89156 0.668906 8.88188 C0.668906 8.88188 0.786094 8.86719 0.869219 9.00875 C0.869219 9.00875 1.23531 9.64844 2.05078 9.64844 C2.05078 9.64844 2.73922 9.64844 2.73922 9.16984 C2.73922 9.16984 2.73922 8.96 2.58297 8.81828 C2.58297 8.81828 2.41219 8.65719 1.91891 8.44234 C1.91891 8.44234 1.20609 8.125 0.966875 7.88578 C0.966875 7.88578 0.707969 7.63187 0.707969 7.20219 C0.707969 7.20219 0.707969 6.67484 1.11328 6.38187 C1.11328 6.38187 1.48922 6.09859 2.11922 6.09859 C2.11922 6.09859 2.51469 6.09859 2.84187 6.16203 C2.84187 6.16203 3.19344 6.22562 3.20797 6.31828 C3.20797 6.31828 3.24703 6.59172 3.36922 7.10938 C3.36922 7.10938 3.38375 7.17281 3.2325 7.21188 C3.2325 7.21188 3.07125 7.24609 3.01766 7.15813 C3.01766 7.15813 2.63187 6.52828 2.04109 6.52828 C2.04109 6.52828 1.37203 6.52828 1.37203 6.95797 C1.37203 6.95797 1.37203 7.19719 1.55281 7.33891 C1.55281 7.33891 1.71391 7.46094 2.30953 7.71969 C2.30953 7.71969 2.93453 7.98828 3.15922 8.20312 C3.15922 8.20312 3.45219 8.48141 3.45219 8.95016 Z" />
    <path
       id="GlHighTowerText-Reg105"
       d="M2.15828 4.35062 C2.15828 4.35062 2.15828 4.57516 1.98969 4.76812 C1.98969 4.76812 1.82125 4.96094 1.62109 4.96094 C1.62109 4.96094 1.39156 4.96094 1.245 4.82422 C1.245 4.82422 1.09859 4.6875 1.09859 4.46781 C1.09859 4.46781 1.09859 4.25297 1.27687 4.0675 C1.27687 4.0675 1.45516 3.88187 1.66016 3.88187 C1.66016 3.88187 2.15828 3.88187 2.15828 4.35062 L2.15828 4.35062 Z M2.70016 9.87797 C2.70016 9.87797 2.67578 10.0195 2.58297 10.0391 C2.58297 10.0391 2.55859 10.0439 2.34859 10.0294 C2.34859 10.0294 1.62109 9.98047 0.917969 10.0489 C0.917969 10.0489 0.7275 10.0684 0.678594 10.0342 C0.678594 10.0342 0.629844 10 0.629844 9.87797 C0.629844 9.87797 0.629844 9.76562 0.88875 9.69234 C0.88875 9.69234 1.17188 9.60938 1.17188 9.15031 L1.17188 7.87109 C1.17188 7.87109 1.17188 7.48531 1.09375 7.32906 C1.09375 7.32906 0.986406 7.11422 0.649375 7.00188 C0.649375 7.00188 0.498125 6.94828 0.498125 6.84078 C0.498125 6.84078 0.498125 6.69922 0.717812 6.63078 C0.717812 6.63078 1.12797 6.50391 1.44531 6.29391 C1.44531 6.29391 1.69922 6.11813 1.75781 6.11813 C1.75781 6.11813 1.95312 6.11813 1.94828 6.37203 C1.94828 6.37203 1.92875 7.65141 1.92875 8.97953 C1.92875 8.97953 1.92875 9.29688 2.02156 9.43359 C2.02156 9.43359 2.12406 9.585 2.41219 9.64844 C2.41219 9.64844 2.72953 9.72172 2.70016 9.87797 Z" />
    <path
       id="GlHighTowerText-Reg99"
       d="M3.88187 9.37016 C3.88187 9.37016 3.88187 9.55078 3.37891 9.80953 C3.37891 9.80953 2.83203 10.088 2.29984 10.088 C2.29984 10.088 1.46969 10.088 0.942344 9.61906 C0.942344 9.61906 0.390625 9.12109 0.390625 8.27141 C0.390625 8.27141 0.390625 7.35844 1.02547 6.75297 C1.02547 6.75297 1.64547 6.16203 2.54891 6.16203 C2.54891 6.16203 3.09578 6.16203 3.50094 6.31828 C3.50094 6.31828 3.87203 6.46484 3.87203 6.63078 C3.87203 6.63078 3.87203 6.74313 3.68891 6.97266 C3.68891 6.97266 3.50594 7.20219 3.38875 7.20219 C3.38875 7.20219 3.31547 7.20219 3.05172 6.99219 C3.05172 6.99219 2.55859 6.60156 2.28031 6.60156 C2.28031 6.60156 1.84078 6.60156 1.55766 6.93359 C1.55766 6.93359 1.25984 7.29484 1.25984 7.92969 C1.25984 7.92969 1.25984 8.69625 1.68953 9.15531 C1.68953 9.15531 2.08016 9.57031 2.63187 9.57031 C2.63187 9.57031 3.17875 9.57031 3.66219 9.2675 C3.66219 9.2675 3.70609 9.23828 3.77937 9.23828 C3.77937 9.23828 3.88187 9.23828 3.88187 9.37016 Z" />
    <path
       id="GlHighTowerText-Reg46"
       d="M1.82125 9.41891 C1.82125 9.41891 1.82125 9.72172 1.63563 9.93172 C1.63563 9.93172 1.45016 10.1416 1.19141 10.1416 C1.19141 10.1416 0.629844 10.1416 0.629844 9.50188 C0.629844 9.50188 0.629844 9.21391 0.825156 9.01609 C0.825156 9.01609 1.02047 8.81828 1.27937 8.81828 C1.27937 8.81828 1.82125 8.81828 1.82125 9.41891 Z" />
    <path
       id="GlHighTowerText-Reg111"
       d="M4.58016 8.03219 C4.58016 8.03219 4.58016 8.88188 3.95016 9.47031 C3.95016 9.47031 3.32031 10.0586 2.38766 10.0586 C2.38766 10.0586 1.45516 10.0586 0.913125 9.54094 C0.913125 9.54094 0.390625 9.03313 0.390625 8.19828 C0.390625 8.19828 0.390625 7.33391 1.04984 6.74313 C1.04984 6.74313 1.68953 6.17188 2.57812 6.17188 C2.57812 6.17188 3.53031 6.17188 4.0625 6.68453 C4.0625 6.68453 4.58016 7.18266 4.58016 8.03219 L4.58016 8.03219 Z M3.72078 8.33 C3.72078 8.33 3.72078 7.56344 3.34969 7.085 C3.34969 7.085 2.98828 6.62109 2.43172 6.62109 C2.43172 6.62109 1.91406 6.62109 1.58688 6.98484 C1.58688 6.98484 1.25984 7.34859 1.25984 7.87109 C1.25984 7.87109 1.25984 8.71094 1.64062 9.17969 C1.64062 9.17969 1.99219 9.60938 2.55859 9.60938 C2.55859 9.60938 3.09578 9.60938 3.40828 9.25297 C3.40828 9.25297 3.72078 8.89641 3.72078 8.33 Z" />
    <clipPath
       id="Clip0"
       clipPathUnits="userSpaceOnUse"
       clip-rule="evenodd">
      <path
         d="M0 0 L279.256 0 L279.256 259.12 L0 259.12 L0 0 Z"
         id="path17" />
    </clipPath>
    <filter
       inkscape:label="Flatten Transparency"
       inkscape:menu="Fill and Transparency"
       inkscape:menu-tooltip="Adds a white opaque background"
       style="color-interpolation-filters:sRGB;"
       id="filter5550">
      <feComposite
         in2="SourceGraphic"
         operator="arithmetic"
         k4="1"
         result="result1"
         id="feComposite5552" />
      <feMerge
         id="feMerge5554">
        <feMergeNode
           in="result1"
           id="feMergeNode5556" />
        <feMergeNode
           in="SourceGraphic"
           id="feMergeNode5558" />
      </feMerge>
    </filter>
    <filter
       style="color-interpolation-filters:sRGB;"
       inkscape:label="Blend"
       id="filter7854">
      <feBlend
         in2="SourceGraphic"
         mode="normal"
         result="blend"
         id="feBlend7856" />
    </filter>
    <filter
       style="color-interpolation-filters:sRGB;"
       inkscape:label="Blend"
       id="filter7858">
      <feBlend
         in2="SourceGraphic"
         mode="normal"
         result="blend"
         id="feBlend7860" />
    </filter>
    <filter
       style="color-interpolation-filters:sRGB;"
       inkscape:label="Blend"
       id="filter7862">
      <feBlend
         in2="SourceGraphic"
         mode="normal"
         result="blend"
         id="feBlend7864" />
    </filter>
    <filter
       style="color-interpolation-filters:sRGB;"
       inkscape:label="Blend"
       id="filter7866">
      <feBlend
         in2="SourceGraphic"
         mode="normal"
         result="blend"
         id="feBlend7868" />
    </filter>
    <filter
       style="color-interpolation-filters:sRGB;"
       inkscape:label="Blend"
       id="filter7870">
      <feBlend
         in2="SourceGraphic"
         mode="normal"
         result="blend"
         id="feBlend7872" />
    </filter>
    <filter
       inkscape:collect="always"
       style="color-interpolation-filters:sRGB"
       id="filter4189">
      <feBlend
         inkscape:collect="always"
         mode="lighten"
         in2="BackgroundImage"
         id="feBlend4191" />
    </filter>
  </defs>
  <g
     inkscape:groupmode="layer"
     id="layer1"
     inkscape:label="Background"
     style="display:inline;filter:url(#filter4189)"
     sodipodi:insensitive="true">
    <ellipse
       style="fill:#ffffff;fill-opacity:1;fill-rule:evenodd;stroke:none;stroke-width:1.54069543px;stroke-linecap:butt;stroke-linejoin:miter;stroke-opacity:1"
       id="path4193"
       cx="360.3746"
       cy="360.27762"
       rx="359.82712"
       ry="359.92575" />
  </g>
  <g
     id="Background"
     style="opacity:1"
     inkscape:export-xdpi="600"
     inkscape:export-ydpi="600">
    <path
       style="fill:none;stroke:#161413;stroke-width:3;stroke-linecap:butt;stroke-linejoin:miter;stroke-dasharray:none;filter:url(#filter7858)"
       d="M680 340 C680 527.784 527.784 680 340 680 C152.223 680 0 527.784 0 340 C0 152.223 152.223 0 340 0 C527.784 0 680 152.223 680 340 Z"
       transform="translate(20, 20)"
       id="path20"
       inkscape:export-xdpi="600"
       inkscape:export-ydpi="600" />
    <g
       transform="translate(40, 260)"
       id="g22"
       style="filter:url(#filter7862)"
       inkscape:export-xdpi="600"
       inkscape:export-ydpi="600">
      <use
         style="fill:#161413;stroke:none"
         xlink:href="#GlPoorRichard-Regular211"
         transform="matrix(23.326 0 0 20.056 13.2823 -18.3129)"
         id="use24" />
      <use
         style="fill:#161413;stroke:none"
         xlink:href="#GlPoorRichard-Regular77"
         transform="matrix(23.326 0 0 20.056 190.277 -18.3129)"
         id="use26" />
      <use
         style="fill:#161413;stroke:none"
         xlink:href="#GlPoorRichard-Regular211"
         transform="matrix(23.326 0 0 20.056 359.805 -18.3129)"
         id="use28" />
      <use
         style="fill:#161413;stroke:none"
         xlink:href="#GlPoorRichard-Regular83"
         transform="matrix(23.326 0 0 20.056 528.081 -18.3129)"
         id="use30" />
      <path
         style="fill:none;stroke:none"
         d="M0 0 L640 0 L640 260 L0 260 L0 0 Z"
         id="path32" />
    </g>
    <g
       transform="translate(20, 460)"
       id="g34"
       style="filter:url(#filter7866)"
       inkscape:export-xdpi="600"
       inkscape:export-ydpi="600">
      <use
         style="fill:#161413;stroke:none"
         xlink:href="#GlHighTowerText-Reg109"
         transform="matrix(12.3 0 0 12.3 87.1147 -47.7366)"
         id="use36" />
      <use
         style="fill:#161413;stroke:none"
         xlink:href="#GlHighTowerText-Reg117"
         transform="matrix(12.3 0 0 12.3 191.076 -47.7366)"
         id="use38" />
      <use
         style="fill:#161413;stroke:none"
         xlink:href="#GlHighTowerText-Reg115"
         transform="matrix(12.3 0 0 12.3 250.21 -47.7366)"
         id="use40" />
      <use
         style="fill:#161413;stroke:none"
         xlink:href="#GlHighTowerText-Reg105"
         transform="matrix(12.3 0 0 12.3 292.767 -47.7366)"
         id="use42" />
      <use
         style="fill:#161413;stroke:none"
         xlink:href="#GlHighTowerText-Reg99"
         transform="matrix(12.3 0 0 12.3 322.532 -47.7366)"
         id="use44" />
      <use
         style="fill:#161413;stroke:none"
         xlink:href="#GlHighTowerText-Reg46"
         transform="matrix(12.3 0 0 12.3 368.874 -47.7366)"
         id="use46" />
      <use
         style="fill:#161413;stroke:none"
         xlink:href="#GlHighTowerText-Reg99"
         transform="matrix(12.3 0 0 12.3 392.993 -47.7366)"
         id="use48" />
      <use
         style="fill:#161413;stroke:none"
         xlink:href="#GlHighTowerText-Reg111"
         transform="matrix(12.3 0 0 12.3 439.334 -47.7366)"
         id="use50" />
      <use
         style="fill:#161413;stroke:none"
         xlink:href="#GlHighTowerText-Reg109"
         transform="matrix(12.3 0 0 12.3 494.324 -47.7366)"
         id="use52" />
      <path
         style="fill:none;stroke:none"
         d="M0 0 L680 0 L680 240 L0 240 L0 0 Z"
         id="path54" />
    </g>
    <path
       style="fill:none;stroke:#161413;stroke-width:3;stroke-linecap:butt;stroke-linejoin:miter;stroke-dasharray:none;filter:url(#filter7870)"
       d="M696 348 C696 540.202 540.202 696 348 696 C155.805 696 0 540.202 0 348 C0 155.805 155.805 0 348 0 C540.202 0 696 155.805 696 348 Z"
       transform="translate(12, 12)"
       id="path62"
       inkscape:export-xdpi="600"
       inkscape:export-ydpi="600" />
    <g
       id="g7991"
       transform="translate(-499.2,180.8)"
       style="stroke:#000000;stroke-opacity:1;stroke-width:3.2;stroke-miterlimit:4;stroke-dasharray:none">
      <path
         inkscape:connector-curvature="0"
         id="path7876"
         d="m 858.79688,-146.54375 a 73.267738,75.578895 0 0 0 -73.2672,75.578125 73.267738,75.578895 0 0 0 2.41408,19.04375 73.267738,75.578895 0 0 0 -56.00784,73.365625 73.267738,75.578895 0 0 0 73.2688,75.57969 73.267738,75.578895 0 0 0 53.87656,-24.49844 73.267738,75.578895 0 0 0 53.32184,23.818752 73.267738,75.578895 0 0 0 73.26718,-75.57969 73.267738,75.578895 0 0 0 -55.9031,-73.332812 73.267738,75.578895 0 0 0 2.2969,-18.396875 73.267738,75.578895 0 0 0 -73.26722,-75.578125 z"
         style="opacity:1;fill:none;fill-opacity:1;stroke:#000000;stroke-width:3.2;stroke-miterlimit:4;stroke-dasharray:none;stroke-opacity:1" />
      <path
         inkscape:connector-curvature="0"
         id="path7876-4"
         d="m 858.52184,-138.03125 a 64.275513,66.303024 0 0 0 -64.27496,66.303125 64.275513,66.303024 0 0 0 5.3828,26.365625 64.275513,66.303024 0 0 0 -58.97656,66.04375 64.275513,66.303024 0 0 0 64.27656,66.303126 64.275513,66.303024 0 0 0 53.81248,-30.150001 64.275513,66.303024 0 0 0 53.38604,29.470313 64.275513,66.303024 0 0 0 64.2749,-66.303126 64.275513,66.303024 0 0 0 -58.6437,-66.0125 64.275513,66.303024 0 0 0 5.0375,-25.717187 64.275513,66.303024 0 0 0 -64.27506,-66.303125 z"
         style="opacity:1;fill:none;fill-opacity:1;stroke:#000000;stroke-width:3.2;stroke-miterlimit:4;stroke-dasharray:none;stroke-opacity:1" />
    </g>
  </g>
</svg>
