<?xml version="1.0" encoding="utf-8"?>
<!-- Generator: Adobe Illustrator 22.1.0, SVG Export Plug-In . SVG Version: 6.00 Build 0)  -->
<svg version="1.1" id="Layer_1" xmlns="http://www.w3.org/2000/svg" xmlns:xlink="http://www.w3.org/1999/xlink" x="0px" y="0px"
	 viewBox="0 0 512 512" style="enable-background:new 0 0 512 512;" xml:space="preserve">
<g>
	<path d="M465.9,178.7c0-97.6-64-126.2-64-126.2c-62.8-28.8-229.5-28.5-291.7,0c0,0-64,28.6-64,126.2c0,116.2-6.6,260.5,106.1,290.3
		c40.7,10.7,75.6,13.1,103.8,11.4c51-2.8,79.7-18.2,79.7-18.2l-1.7-37.1c0,0-36.5,11.4-77.5,10.1c-40.6-1.4-83.4-4.4-90-54.2
		c-0.6-4.6-0.9-9.3-0.9-14c86,21,159.3,9.1,179.5,6.7c56.4-6.7,105.5-41.5,111.7-73.2C466.7,250.8,465.9,178.7,465.9,178.7
		L465.9,178.7z M390.4,304.5h-46.8V189.8c0-49.9-64.3-51.8-64.3,6.9v62.8h-46.5v-62.8c0-58.8-64.3-56.8-64.3-6.9v114.7h-46.9
		c0-122.6-5.2-148.5,18.5-175.8c26-29,80.2-30.9,104.3,6.1l11.6,19.6l11.6-19.6c24.2-37.3,78.5-34.9,104.3-6.1
		C395.8,156.1,390.4,181.9,390.4,304.5L390.4,304.5z"/>
</g>
</svg>
